<?xml version="1.0" standalone="no"?><!DOCTYPE svg PUBLIC "-//W3C//DTD SVG 1.1//EN" "http://www.w3.org/Graphics/SVG/1.1/DTD/svg11.dtd"><svg t="1495871544297" class="icon" style="" viewBox="0 0 1024 1024" version="1.1" xmlns="http://www.w3.org/2000/svg" p-id="4192" xmlns:xlink="http://www.w3.org/1999/xlink" width="48" height="48"><defs><style type="text/css"></style></defs><path d="M1010.24 247.296c-16.704-16.448-43.52-16.384-60.096 0.256l-435.264 439.232L73.6 249.408C56.896 232.896 30.08 233.024 13.504 249.664-3.072 266.368-2.88 293.248 13.76 309.76l469.056 464.832c0.704 0.704 1.664 0.896 2.368 1.6 0.192 0.192 0.192 0.384 0.384 0.576 8.256 8.192 19.136 12.352 29.888 12.352 10.944 0 21.888-4.224 30.144-12.608l464.832-469.056C1027.072 290.688 1026.944 263.808 1010.24 247.296L1010.24 247.296z" p-id="4193" fill="#dddddd"></path></svg>