<?xml version="1.0" standalone="no"?><!DOCTYPE svg PUBLIC "-//W3C//DTD SVG 1.1//EN" "http://www.w3.org/Graphics/SVG/1.1/DTD/svg11.dtd"><svg t="1495808910409" class="icon" style="" viewBox="0 0 1024 1024" version="1.1" xmlns="http://www.w3.org/2000/svg" p-id="2383" xmlns:xlink="http://www.w3.org/1999/xlink" width="48" height="48"><defs><style type="text/css"></style></defs><path d="M515.97401 908.939451c-7.814989 0-15.626909-2.963495-21.611204-8.895601-2.51631-2.493797-252.522294-250.338558-334.080821-334.084914-64.034409-65.74947-95.526657-134.024459-93.604888-202.926736 2.400676-86.025259 57.105602-141.42194 64.846914-148.838863 60.150962-61.915142 129.21185-93.305059 205.28034-93.305059 76.795037 0 140.457985 32.689517 172.407652 52.843532 45.51359-38.692231 97.567129-58.273195 155.073868-58.273195 107.505479 0 194.772009 69.858044 199.517079 73.724095 54.029544 43.648103 83.73203 96.291067 88.281649 156.467611 3.188622 42.173518-6.193049 86.559425-27.884071 131.922588-21.024849 43.968397-47.725978 76.30385-61.770855 91.665723C784.317641 654.66628 547.654546 890.033869 537.616936 900.011104 531.630594 905.96163 523.801279 908.939451 515.97401 908.939451zM173.941076 258.582313c-1.864464 1.792832-44.503587 43.61024-45.910633 107.003036-1.140986 51.41909 24.508183 104.421234 76.236312 157.535943 67.029626 68.826552 248.864998 249.504564 311.659159 311.828005 61.594847-61.45363 237.688447-237.691517 301.18869-307.142286 38.920428-42.567491 78.732156-111.558795 73.744561-177.528276-3.223415-42.641169-25.329898-80.790024-65.704444-113.38642-0.054235-0.042979-0.107447-0.086981-0.161682-0.130983-0.687662-0.556679-74.832336-59.904345-160.708192-59.904345-48.684816 0-92.576465 19.424398-130.455167 57.733912-11.078313 11.20418-28.842909 12.202926-41.105187 2.308579-0.620124-0.494257-69.465095-54.612829-155.920142-54.612829-59.002812 0-113.38642 25.266453-161.638377 75.098395C174.688089 257.877255 174.430216 258.140245 173.941076 258.582313z" fill="#ff4343" p-id="2384"></path><path d="M800.831756 314.308499" fill="#ff4343" p-id="2385"></path></svg>